<svg xmlns="http://www.w3.org/2000/svg" xmlns:xlink="http://www.w3.org/1999/xlink" viewBox="0 0 61.141 15.346">
  <defs>
    <linearGradient id="a">
      <stop offset="0" stop-color="#7f9cf5"/>
      <stop offset="1" stop-color="#4fd1c5"/>
    </linearGradient>
    <linearGradient id="b" x1="477.488" x2="536.087" y1="342.753" y2="342.753" gradientUnits="userSpaceOnUse" xlink:href="#a"/>
    <path id="c" d="M-138.377 125.021h124.619v74.613h-124.619z"/>
  </defs>
  <g transform="translate(-143.401 -38.01)">
    <rect width="13.758" height="16.404" x="-9.469" y="34.479" fill="none" stroke="#fff" stroke-linecap="round" stroke-linejoin="round" stroke-opacity=".982" stroke-width=".794" ry="2.76" transform="rotate(-15)"/>
    <rect width="13.758" height="16.404" x="-9.469" y="34.479" fill="none" stroke="#fff" stroke-linecap="round" stroke-linejoin="round" stroke-opacity=".982" stroke-width=".794" ry="2.76" transform="rotate(-15)"/>
    <g stroke-width="1.524">
      <path fill="url(#b)" d="M516.213 309.922a9.15 9.15 0 00-2.018.308l-30.084 8.061a8.867 8.867 0 00-6.31 10.93l10.648 39.738c1.288 4.804 6.128 7.606 10.932 6.318l30.084-8.06c4.804-1.288 7.596-6.135 6.308-10.94l-10.648-39.736c-1.046-3.903-4.436-6.48-8.248-6.62a8.65 8.65 0 00-.664 0zM502.03 327.76a3 3 0 012.905 2.222L508 341.41l13.715 7.654a3 3 0 011.152 4.077 3 3 0 01-4.076 1.158l-14.822-8.268a3 3 0 01-1.44-1.845l-3.388-12.645a3 3 0 012.119-3.678 3 3 0 01.738-.101 3 3 0 01.033-.002z" style="mix-blend-mode:normal" transform="matrix(.17357 0 0 .17357 63.845 -13.156)"/>
      <path fill="#7f9cf5" d="M151.695 39.335a1.83 1.83 0 00-.408.061l-5.22 1.399a1.807 1.807 0 00-1.28 2.217l1.848 6.897c.2.747.834 1.256 1.558 1.332a2.083 2.083 0 01-.074-.223l-1.848-6.898a2.071 2.071 0 011.464-2.535l5.221-1.4c.1-.026.198-.042.297-.054a1.803 1.803 0 00-1.558-.796z"/>
      <g fill="#1a202c" stroke-width="1.022" aria-label="timecards" font-family="Lilita One" font-size="10.583" font-weight="400" letter-spacing="0" style="line-height:1.25;-inkscape-font-specification:'Lilita One, Normal';font-variant-ligatures:normal;font-variant-caps:normal;font-variant-numeric:normal;font-variant-east-asian:normal;white-space:pre;shape-inside:url(#c)" transform="translate(294.683 -82.68) scale(.9784)" word-spacing="0">
        <path d="M-135.467 134.833q0 .127-.889.127-1.058-.042-1.058-.138v-3.746h-.54q-.211 0-.211-.73 0-.191.031-.466.043-.275.16-.275h.56v-.932q0-.211.89-.211.899 0 .899.17v.676l.01.297h.9q.18 0 .18.74 0 .741-.18.741h-.752zM-132.07 134.833q0 .085-.973.085-.963 0-.963-.075v-5.196q0-.074.963-.074.974 0 .974.063zm0-5.82q0 .073-.973.073-.963 0-.963-.063v-1.524q0-.106.963-.106.974 0 .974.063zM-126.323 134.843q0 .075-.91.075-.9 0-.9-.096v-3.08q0-.529-.349-.529-.18 0-.476.233v3.387q0 .106-.91.106-.9 0-.9-.117v-3.46h-.264q-.35 0-.35-.73 0-.329.128-.667.169-.466.55-.466.38 0 .73.201.36.201.434.381.656-.582 1.45-.582.804 0 1.291.497.572-.497 1.376-.497 1.746 0 1.746 2.127v3.218q0 .074-.91.074-.9 0-.9-.096v-3.08q0-.529-.349-.529-.19 0-.487.233zM-118.777 134.61q-.666.392-1.714.392t-1.768-.709q-.72-.72-.72-1.979 0-1.27.689-2.043.698-.772 1.756-.772 1.059 0 1.63.54.582.54.582 1.312 0 1.714-1.968 1.714h-.73q0 .318.169.445.18.116.519.116.74 0 1.407-.338.01-.01.095.148.254.455.254.772 0 .307-.2.403zm-1.323-3.058q0-.444-.434-.444-.2 0-.349.127-.137.116-.137.349v.328h.571q.35 0 .35-.36zM-115.898 132.272q0 1.037.783 1.037.508 0 .847-.201.158 0 .254.55.106.54.106.741 0 .19-.053.254-.561.35-1.535.35-.974 0-1.662-.72-.677-.73-.677-1.98 0-1.259.667-2.032.677-.772 1.788-.772 1.122 0 1.556.54.095.116.095.349 0 .222-.084.55-.19.678-.498.783-.042.011-.127.011-.074 0-.19-.127-.413-.413-.667-.413-.243 0-.423.254t-.18.826zM-112.48 131.055q-.296-.53-.296-.858 0-.338.18-.434.603-.264 1.65-.264 1.06 0 1.493.497.434.487.434 1.45v1.672h.36q.18 0 .275.212.106.212.106.582t-.19.73q-.18.36-.498.36-.572 0-.92-.307-.16-.127-.244-.307-.487.614-1.514.614-.772 0-1.301-.55-.53-.55-.53-1.302 0-1.725 2.064-1.725h.582v-.106q0-.275-.095-.349-.085-.085-.413-.085-.402 0-1.143.17zm.847 1.947q0 .233.127.36.127.116.317.116.202 0 .36-.159v-.814h-.296q-.508 0-.508.497zM-105.357 134.886q0 .074-.963.074-.963-.021-.963-.085v-3.513h-.286q-.17 0-.275-.202-.096-.211-.096-.518 0-1.143.678-1.143.476 0 .794.296.317.286.317.656.222-.434.593-.688.38-.264.772-.264.614 0 .741.317.032.085.032.254 0 .16-.106.582-.095.424-.201.614-.106.19-.127.19-.021 0-.201-.073-.17-.085-.307-.085-.402 0-.402.635zM-100.806 127.552q0-.16.836-.16.285 0 .656.043.38.032.38.095v5.578h.371q.265 0 .35.476.02.138.02.381 0 .233-.147.571-.212.466-.678.466-.349 0-.624-.137-.265-.138-.36-.286l-.095-.138q-.582.561-1.46.561-.88 0-1.504-.73t-.624-2.032q0-1.312.656-2.022.656-.72 1.64-.72.286 0 .583.064zm-.35 3.64q-.592 0-.592 1.07 0 .539.17.782.168.233.37.233.211 0 .402-.18v-1.799q-.18-.106-.35-.106zM-97.282 132.991q.857.519 1.355.519.317 0 .317-.222 0-.159-.55-.413-1.323-.54-1.323-1.767 0-.784.571-1.196.572-.413 1.366-.413.804 0 1.354.17.561.169.561.444 0 .233-.233.614-.222.38-.307.412-.455-.254-.984-.254-.286 0-.286.201 0 .127.106.223.117.084.413.222.296.127.487.233.2.106.444.296.508.402.508 1.048 0 .846-.56 1.376-.562.518-1.694.518-.751 0-1.365-.254t-.614-.698q0-.297.138-.625.148-.328.296-.434z" style="-inkscape-font-specification:'Lilita One, Normal';font-variant-ligatures:normal;font-variant-caps:normal;font-variant-numeric:normal;font-variant-east-asian:normal"/>
      </g>
    </g>
    <rect width="13.758" height="16.404" x="90.778" y="145.411" fill="none" ry="2.76" transform="rotate(-15)"/>
  </g>
</svg>
